<?xml version="1.0" encoding="UTF-8"?>
<svg width="450" height="600" version="1.1" xmlns="http://www.w3.org/2000/svg">
 <g fill="#393" stroke="#e6e6e6" stroke-width="2px">
  <path d="m407 138-1.02 13.2-1.53 2.8 3.56 3.05-5.6 6.36-7.63 4.83 0.254 8.65 8.39 6.61 10.2 8.9 4.07 6.36-1.53 7.12-2.8 5.09 2.03 7.12 5.34 2.03 0.254 8.9 1.02 6.87 0.763 7.88-4.58 4.58-3.56 4.58 5.6 7.88 3.82 9.41-2.54 4.07 11.7 6.87 1.27 10.9 0.254 15.5-2.54 4.07-4.58 13.5-5.6 2.29-5.85-3.56v-5.6l-3.56-5.85-8.9-1.53-3.05 3.05 5.09 4.83v5.09l-7.12 1.02-13.5 5.34-12.5 8.14-12.2 5.09s-8.39 3.31-9.41 3.82c-1.02 0.509-10.2 8.14-10.2 8.14l-7.12 3.05-9.67-0.254-8.9 8.39-2.03 5.09-8.9-6.1-2.54 3.31 4.32 6.36 0.763 4.32 11.4 9.67 2.54 5.34-1.78 4.32s-3.05 4.32-3.56 5.34c-0.509 1.02-1.27 4.07-1.27 4.07l9.67 6.61 1.53 9.41s4.32 6.61 4.32 7.63 1.02 5.34 1.02 5.34l11.2 0.254 4.83 6.87 4.32 7.12 6.61 2.03 4.32 7.12-0.254 4.58 12.7 0.509 4.83 9.16s2.03 6.61 2.03 8.14-1.78 12.2-1.78 12.2l-5.09 2.8-5.6-3.31-2.8-0.509-2.03 4.58-5.09 13.7-5.6 2.54-9.16 2.54s-3.56 3.31-4.58 4.07c-1.02 0.763-6.61 5.09-6.61 5.09l-1.78 6.61 5.34 4.32 2.8 5.34 3.31 5.34-2.29 3.82-0.763 5.6 4.83 0.509 3.05 4.58-0.509 5.6-3.31 6.1-5.6-0.254-5.09-4.58-3.05-4.07 0.509-6.36-5.34 0.254-2.54 4.58-3.05-0.763-2.8-3.56s-4.32 2.29-5.34 1.02-3.82-5.09-3.82-5.09l-2.8 5.09 1.02 3.82-13.7 0.509-5.09 2.8-7.63 0.254-4.83 5.85-8.65 2.54-8.14 4.07-8.39 0.254-4.32-6.61-9.41-4.07-7.88-0.254-3.05 3.82 2.03 4.07-2.29 5.6-5.6 5.85h-6.36l-1.53-6.36-6.61-7.88-5.34-6.61-5.34-0.254-3.56 4.07-4.07 0.254-4.83-2.8-8.14-6.1-8.9-3.31-7.38 0.509-1.78 1.78-5.09-4.32-5.34 2.29-3.31-7.12-5.6-2.03-3.56 5.6-0.254 4.32 5.6 0.763 0.254 4.32-4.83 2.29-8.65-1.78-3.31 0.254-6.61 3.56-6.36-2.54-8.14 1.53-8.14-4.58-2.8-7.38 2.54-6.36 3.05-10.9 0.763-9.16 2.29-12.2 4.07-14.5 1.78-12.2 10.2-10.9 7.88-13.2-1.02-4.83-6.87-3.05-9.92-0.509-6.1-2.54-5.09-1.53-5.34-5.85-5.6 3.56-6.36-0.254-5.6-3.05-3.31-2.8-4.83-0.509-2.03 4.07-7.38-4.07-3.56-9.67s-0.509-5.85-1.78-6.36c-1.27-0.509-6.36-3.31-6.36-3.31l-2.8-4.32 3.56-6.1-1.27-3.31 4.07-5.09s2.03-4.58 2.03-5.6-5.34-1.53-5.34-1.53l-5.85-3.05-6.36-10.2s-2.8-6.1-3.05-7.38 2.54-8.65 2.54-8.65l7.38-7.38s3.56-2.03 3.56-3.05 0.763-8.14-0.509-8.9c-1.27-0.763-8.39-5.09-8.39-5.09l1.53-5.09-4.83-6.1-5.6-6.1-1.02-6.61 4.32-3.31s-1.53-4.58-2.54-5.34c-1.02-0.763-6.36-4.58-6.36-4.58l6.1-2.8 4.58-4.58-1.53-5.34 2.03-4.83 4.32-5.6-0.763-12.5-4.58-8.9-5.6-9.92 1.78-3.56 8.65-5.09 5.09 0.254 6.1 1.53 6.61-1.78 7.12-0.763 4.83-5.09-2.29-3.82-4.83-3.56 2.54-4.58 6.87-3.31 4.32-4.32 2.29-5.34 0.254-5.85-3.56-5.85h-7.12l-5.6-3.31 1.78-6.36 1.53-5.09 5.09-0.254 4.58 2.29 3.05 0.254 2.29-16.8 4.07-3.05 1.53-8.39-0.763-8.9 0.509-4.07 1.78-11.7-10.2 0.509 0.254-7.88v-7.12l5.09-5.85 6.36-4.58 6.1 0.509 12.2-3.31h9.41l7.63 0.509 1.02 6.61 5.09 4.83-6.87 5.85 6.36 4.32 4.07 0.254 0.254-6.36-2.29-6.87 8.9-0.254 6.1 3.82-1.02 5.6 1.78-5.85 1.27-1.78-5.34-4.32 3.05-12.7 5.09-4.07 7.12 2.8s3.56-5.34 4.83-5.09c1.27 0.254 4.83-0.509 4.83-0.509l-6.1-5.34-1.27-7.38 7.38 0.509 0.763-4.58-4.32-2.8h-4.58l-0.763-5.85 7.12-3.82h-10.4l-5.09 0.763-2.03-6.36 6.1-4.32 6.87 1.78 5.6-5.85-3.05-6.36-4.83-6.36-4.32-6.36-5.6-7.38v-5.34l11.4-0.763 15.5 3.31 8.65 3.56 6.1-5.6 8.14 3.31 6.36 6.1 3.31-3.56 3.82 6.61 1.78 5.09s0.509 7.63-1.02 8.14c-1.53 0.509-7.38 5.6-7.38 5.6l4.32 1.27 5.09-2.54 2.8 0.763 4.07 4.32-1.53 5.6 5.09-6.61 9.16 0.763 5.09 4.32 7.88 3.82 5.6-2.54 6.1-1.02 3.82-2.8-0.509 7.63 2.29 5.6s-3.05 5.6-4.58 5.6-9.41 3.31-9.41 3.31l-2.54 3.05-3.56 2.29 8.14 2.54s-1.02 3.31-1.53 4.32c-0.509 1.02-0.763 4.83-0.763 4.83l7.12-6.36-0.254-4.32h8.65l7.88 4.32 6.36 4.07 2.54-9.67 3.56-7.63h5.6l13.2-3.31 4.07 4.07 0.763-7.63 4.83-2.03 4.83-3.31 2.29-4.58 6.1-0.254 8.14-3.05 4.83-2.29 7.63 1.53h3.82l2.8 9.41 4.85 3.15 3.8 2.44 5.34 5.09 1.02 6.1 5.34-4.07 8.9-1.53 2.29 7.12 5.09 6.36s0.763 6.36-0.254 7.12c-1.02 0.763-4.83 2.29-4.83 2.29l14.2 7.12 5.85-0.254 5.85 8.14-2.54 5.09 1.78 6.36z" fill-rule="evenodd"/>
  <path d="m127 17.9-0.838 2.15-0.686 1.95-0.223 1.06-0.187 1.53-0.159 1.79-0.477 6.88-8e-3 0.533 0.413 0.954 0.237 0.31 0.0969-0.0323 0.0819-0.135 0.0158-0.31 0.182-5.87-0.103-0.174-0.104-0.35v-0.127l0.12-1.13 0.326-1.04 0.191-0.247 1.6-1.04 0.455 0.397 0.0879 0.119 1.08 0.611 1.05 0.764 0.35 0.119h0.162l2.06-1.05 1.31-1.1-0.0631-0.0556-0.264-0.0639-0.397-0.0398-1.62 0.0639-0.401-0.0639-0.206-0.0722-1.39-1.24-0.0301-0.0323-1.23-1.26-0.31-4.47 0.855-1.7 0.382-0.486 0.719-0.573 0.0714-0.0406 0.91-0.214 0.957-0.597 1.18-2.3-0.0158-0.0631-0.0819-0.0729-1.59-0.66-0.433-0.127-0.254-0.0158-0.135 0.0473-0.387 0.247-0.103 0.103-0.318 0.517-1.43 3.37-0.278 0.706z"/>
  <path d="m133 34-0.386-8e-3 -1.46 0.278-0.424 0.158-0.318 0.247-0.41 0.421-0.301 0.54-0.397 0.955-0.0594 0.62 0.0684 0.318 0.126 0.23 0.151 0.127 3.01 1.48 0.623 0.174 0.728 0.0473 2.45 0.0954 0.317-0.0158 0.16-0.0714 1.39-2.91-0.45-1.8-0.11-0.206-0.687-0.477-0.831-0.295-0.341-0.0782-0.222-0.0556-0.537-0.0406-0.624 0.222-0.237 0.0962z"/>
  <path d="m125 40.8 8e-3 0.167 0.226 0.579 0.918 1.48 0.486 0.747 0.551 0.85 0.128 0.0631 0.264 0.0406 0.854-8e-3 0.0556-0.0165 0.893-0.437 0.0872-0.0954 0.227-0.564-0.0316-0.0782-0.961-0.486-0.779-1.2-0.951-2.65-0.107-0.556 0.131-0.374 0.207-0.382 0.767-0.755-0.0639-0.0789-0.123-0.0406-0.303 0.136-1.84 1.68-0.237 0.31-0.282 0.7-0.0323 0.628z"/>
  <path d="m138 43.6 2.74-0.683 0.359-0.214 0.259-0.334 0.141-0.454 0.137-0.764-0.128-0.0631-4.72 1.85-1.24 0.51-0.11 0.31 0.0391 0.11 0.791 0.643z"/>
  <path d="m134 47.4-0.198 0.024-0.151 0.128 0.0398 0.135 0.191 0.295 0.127 0.0955 1.21 0.897 0.214 0.143 0.64 8e-3 0.39-0.11 0.0872-0.159-8e-3 -0.333-0.647-0.993-0.0797-0.0556-0.246-0.0722-0.497 0.143z"/>
  <path d="m139 54 0.413 0.373 0.234 0.0722 0.501-0.0241 0.767-0.159 0.655-0.191 0.183-0.11 0.262-0.295 0.83-1.83 0.45-1.06 0.0631-1.11-0.174-0.104-0.465-0.0782-0.421 0.0549-1.67 0.525-0.237 0.0714-1.94 0.81-0.277 0.143-0.16 0.205-0.0391 0.2 0.0218 0.859 0.097 0.365 0.11 0.236 0.174 0.239 0.103 0.0789z"/>
  <path d="m150 52-2.36 1.53-0.31 0.383v0.204l-8e-3 1.94 0.51 0.397 0.441 0.222 0.583 0.135 1.63 0.159 0.686-7e-3 0.958-0.796 0.417-0.517 0.0631-0.0864 1.12-1.72 0.0233-0.119-0.182-0.979-0.237-0.268-0.704-0.16-1.68-0.0646z"/>
  <path d="m256 51c-0.225-0.0633-0.47-0.137-0.568-0.374-0.424 0.186-0.665 0.619-0.977 0.942-0.421 0.535-0.758 1.13-1.01 1.76-0.23 0.51-0.451 1.04-0.559 1.58-0.0673 0.829-0.164 1.66-0.213 2.49 0.0449 0.255 0.0958 0.548 0.368 0.657 0.412 0.249 0.779 0.588 1.23 0.769 0.234 0.0617 0.4-4.7e-4 0.0955-0.0335-0.337-0.106-0.607-0.351-0.912-0.522 0.0253-0.218-0.0822-0.519 0.185-0.615l1.7-0.601c0.475 0.144 0.943 0.306 1.4 0.51 0.137 0.283 0.264 0.592 0.308 0.898-0.0437 0.531-0.107 1.06-0.169 1.59 1.29 0.232 2.58 0.496 3.88 0.707 1.94 0.0113 3.89 0.0511 5.83 0.0446 0.0795-0.16 0.0218-0.409-0.0205-0.587-0.583-1.23-1.14-2.49-1.75-3.7-0.769-1.18-1.54-2.35-2.31-3.53-0.822-0.42-1.63-0.867-2.46-1.27-1.35-0.238-2.69-0.477-4.04-0.715z"/>
  <path d="m146 84.4-0.135-0.0864-0.262-0.27-0.379-0.461 8e-3 -0.301 0.0872-0.365 0.156-0.318 0.127-0.174 0.166-0.159 0.152-0.0954 0.189-0.0789 0.187-0.0158 0.231 0.192 0.0158 0.0473-0.11 1.92-0.218 0.15z"/>
  <path d="m110 72.4 0.887-0.0872 0.0549 0.461-0.651 1.14-0.552-0.0473-0.214-0.0473-0.664-1.21 0.0316-0.183 0.401-0.278 0.327-0.111z"/>
  <path d="m108 104-0.775-0.946-0.0797-0.0864v-0.136l0.327-0.286 0.286-0.119 1-0.0406 0.561 0.0233 0.512 0.0729 1.32 0.294 0.465 0.135 0.167 0.0872 0.924 0.644 0.0413 0.358-0.128 0.0316-1.22-0.453-2.89-0.739-0.111 8e-3 -0.0714 0.0556-0.191 0.326z"/>
  <path d="m115 107-0.0782-8e-3 -0.247-0.11-0.192-0.126-0.159-0.183-0.0721-0.174-0.322-1.26 8e-3 -0.288 0.545-0.65 0.27 0.333 0.309 1.59-0.0158 0.803z"/>
  <path d="m99.5 106-0.398-0.0714-0.132-0.0782-0.158-0.303 8e-3 -0.294 0.205-0.422 0.457-0.572 0.214-0.206 0.198-0.127 0.456-0.143 0.792-0.0308 1.13 0.0308 1.79 0.159 0.327 0.0481 1.02 0.277 0.295 0.31 0.0398 0.11-0.0398 0.0323-2.76 0.517-2.78-0.175z"/>
  <path d="m89.9 108-0.168-0.0316-0.27-0.222-0.11-0.674 0.0158-0.548 0.0556-0.215 0.54-0.737 0.148-0.127 0.469-0.239 0.325-0.0556 2.55-0.0158 2.01 0.103 0.731 0.0879 0.186 0.0549 0.301 0.11 0.27 0.159 0.0962 0.143 0.0233 0.365-0.0158 0.0782-0.0316 8e-3 -0.596 0.0406-8e-3 -0.0406 0.0947-0.0954-9e-3 -0.0398-0.0473-0.0158-1.6-0.103h-0.176l-1.19 0.103-1.75 0.168-0.213 0.0714z"/>
  <path d="m88.2 108-1.04-0.0406-1.21-0.142-1.05-0.237-0.243-0.365 8e-3 -0.0782 0.0646-0.0729 1.1-0.453 0.19-0.0398h0.247l1.57 0.342 0.104 0.0549 0.237 0.841 0.0323 0.12z"/>
  <path d="m75.1 109-0.48-0.405-0.201-0.286-0.0406-0.144 0.0962-0.174 0.231-0.168 0.282-0.141 1.06-0.477 0.697-0.183 0.413-0.0556 5.37 0.0233 0.806 0.024 0.398 0.104 0.188 0.0947 0.135 0.382-0.0323 0.11-0.664 0.237-0.45 0.144-5.76 0.715-1.49 0.127z"/>
  <path d="m63.4 111-0.441-0.0331-0.0864-8e-3 -0.256-0.0864-0.377-0.247-0.0474-0.128 0.0474-0.104 0.259-0.0714 6.78-0.667h2.35l0.656 0.142 0.0947 0.119 0.0398 0.11-8e-3 0.191-0.128 0.176-0.0443-0.119-0.0639-0.0316-1.12-0.0722-0.469-0.0158-0.561 0.0158-2.66 0.0955-3.51 0.54-0.422 0.128z"/>
  <path d="m56.2 119-0.391-0.81-0.231-0.151-0.392 0.0241-0.326 0.118-0.0473 0.104v0.222l0.0782 0.231 0.0954 0.0714-8e-3 0.0316-0.0872 0.024-0.488-0.0789-1.96-1.56-0.333-0.51-0.127-0.643 0.0624-0.31 0.119-0.19 0.0722-0.0722 0.215-0.0789 3.94-1.19 0.205-9e-3 0.413 0.0564 0.497 0.213 1.32 0.993 0.392 0.414 0.0406 0.119-3.97 1.12 0.949 0.85 0.505 0.613-0.0406 0.0707-0.416 0.319z"/>
  <path d="m358 38.7c-1.14 0.738-2.22 1.65-2.93 2.81-0.75 1.92-1.58 3.82-2.28 5.76-0.332 0.746 0.386 0.635 0.707 0.196 0.705-0.749 1.58-1.38 2.18-2.21 0.206-0.569 0.588-1.13 0.254-1.73-0.354-0.524 0.0192-0.952 0.347-1.36 0.401-0.457 0.589-1.21 1.3-1.24 0.647-0.241 0.481 0.801 0.595 1.19-0.0206 1.19-0.803 2.12-1.29 3.14-0.12 0.768-0.345 1.53-0.238 2.31 1.25-0.577 2.49-1.17 3.66-1.9 1.75 0.71 3.49 1.46 5.25 2.15 0.939-0.0625 1.85-0.232 2.7-0.667 0.45-0.101 0.105 1 0.233 1.39 0.0558 1.51 0.0617 3.03-0.0497 4.54-0.567 0.146-1.25 0.13-1.84 0.0566-1.22-0.346-2.42-0.766-3.47-1.49-0.673-0.45-1.48-0.74-2.06-1.3 0.0682-0.868 0.177-1.73 0.262-2.6-1.73 0.105-3.49 0.0477-5.21 0.272-1.1 0.303-2.25 0.517-3.28 1-0.687 0.198-0.0513 0.972-0.0666 1.46 0.112 0.469 0.207 1.15 0.603 1.4 0.888-0.047 1.84-0.162 2.68 0.0919 0.605 0.548 1.21 1.1 1.82 1.64-0.362 0.549-0.466 1.42-1.26 1.49-0.983 0.421-2.03 0.585-3.08 0.786-0.261 0.713-0.738 1.38-0.866 2.12-0.0687 0.666 0.863 0.509 1.28 0.692 1.17 0.252 2.34 0.519 3.51 0.761-1.76 1.16-3.8 1.86-5.6 2.9-0.315 0.752-0.391 1.62-0.492 2.42 0.0257 1.16 0.646 2.2 0.937 3.31 0.248 0.482 0.176 1.32 0.875 1.36 3.74 1.25 7.48 2.51 11.2 3.76 0.521-0.45 1.52-0.849 1.23-1.71-0.193-0.583-0.56-1.1-1.02-1.49-0.736-0.226-0.4 0.592-0.877 0.798-0.36 0.283-1.06 0.821-1.35 0.18-0.114-0.615 0.0121-1.14 0.545-1.51 1.75-1.85 3.47-3.74 5.42-5.38 0.745-0.685 1.85-0.45 2.77-0.665 1.85-0.207 3.69-0.488 5.54-0.65 0.526 0.145 0.633 0.903 0.987 1.3 0.488 0.473 0.396 1.32-0.242 1.6-0.342 0.386-1.19 0.36-0.995 1.03-0.252 0.889 0.383 0.636 0.974 0.442 0.674 0.0306 0.841-0.566 1.08-1.07 0.386-0.763 0.75-1.54 1.13-2.3-0.442-1.25-1.19-2.38-1.92-3.47-0.585-0.503-1.2-0.966-1.84-1.4-0.457 0.406-1.19 0.211-1.76 0.284-1.1-0.634-1.65-1.87-2.2-2.97-0.34-0.911-0.68-1.99-0.306-2.93 0.867-1.21 1.97-2.25 3.18-3.1 0.57-0.18 1.03-0.559 1.19-1.16 0.356-0.838 0.146-1.82-0.0259-2.67-0.51-0.693-1.27-1.18-2.02-1.56-1.88 0.0127-3.71 0.483-5.47 1.11-1.16 0.17-2.36 0.643-3.51 0.143-1.41-0.658-2.33-2.13-2.64-3.62-0.279-0.774-0.0907-1.74 0.531-2.28 0.535-0.362 1.4-0.159 1.65-0.904 0.0969-0.474 0.543-1.08 0.0996-1.49-0.309-0.539-1.02-0.106-1.53-0.166-1.61 0.0387-3.08 0.845-4.66 1.05-0.115 2e-3 -0.23 5e-3 -0.345 7e-3z"/>
  <path d="m348 55.3 0.0947 0.237h0.0729l0.136-0.189 0.135-0.525 0.822-4.58 0.593-2.92 1.72-0.866-2.24-0.795-1.36 7.8-0.104 0.787-8e-3 0.405 0.0549 0.254z"/>
  <path d="m352 56.5 3.19-1.76 0.391-0.31 0.0872-0.11-0.215-0.691-0.191-0.238-0.982-0.453-0.178-0.0789-0.517-0.0631-0.504 0.127-0.493 0.333-0.632 0.842-0.119 0.269-0.799 1.87-0.0225 0.501 0.0466 0.119 0.104 0.0473z"/>
  <path d="m345 57.2-0.11-0.0316-0.16 9e-3 -0.139 0.0473-0.175 0.11-0.0864 0.0955 9e-3 0.104 0.204 0.198 0.187 0.168 0.501-0.0316 2.43-0.859 0.502-0.437 0.266-0.286-0.377-0.413-0.168 0.0398-2.13 0.803-0.274 0.317-0.391 0.469z"/>
  <path d="m384 78.1c-0.304-0.452-0.849-0.791-1.4-0.558-0.589 0.185-1.38 0.532-1.44 1.23-0.0249 0.779 0.102 1.64 0.725 2.17 0.454 0.51 0.943 1.06 1.38 1.53 0.149 1.25 0.216 2.53 0.416 3.76 0.942 1.46 1.88 2.93 2.83 4.39 0.385 0.27 0.771-0.227 1.15-0.319 0.674-0.33 1.35-0.648 2.02-0.984 0.0914-0.4 0.504-0.855 0.0923-1.2-0.359-0.572-0.857-1.08-0.901-1.79-0.182-0.429-0.183-0.865 0.4-0.642 0.723 0.092 1.49 0.0752 2.19 0.233 1.21 0.935 2.15 2.14 3.18 3.27 0.383 0.559 0.676 1.24 0.595 1.93-0.0153 1.08-0.0307 2.17-0.0461 3.25-0.908-0.159-1.82-0.319-2.72-0.478-0.465-0.828-0.758-1.72-1-2.64-0.53-0.471-1.28-0.302-1.88-0.0975-0.393 0.0825-0.85 0.158-0.93 0.63-0.182 0.432-0.202 0.942-0.199 1.41 0.191 0.471 0.657 0.761 0.934 1.19 0.701 0.757 0.819 1.84 1.2 2.77 0.122 0.645-0.348 1.22-0.515 1.82-0.698 0.615-1.61 0.988-2.43 1.43-0.384 0.243-0.837 0.376-1.29 0.254-0.19 0.387-0.379 0.774-0.569 1.16 0.362 0.448 0.848 0.71 1.38 0.898 0.619 0.201 1.26 0.371 1.91 0.216 1.44-0.225 2.88-0.522 4.26-1.01 1.07-0.529 2.12-1.12 3.2-1.61 1.94-0.18 3.87-0.448 5.81-0.572 0.368 0.0114 0.235-0.746 0.4-1.05 0.258-1.15 0.515-2.3 0.773-3.45-1.64-1.34-3.29-2.66-4.81-4.13-1.78-1.61-3.49-3.29-5.26-4.9-0.803-0.442-1.59-0.991-2.48-1.22-1.23-0.0982-2.26-0.841-3.29-1.45-0.889-0.737-1.76-1.54-2.4-2.5-0.426-0.981-0.853-1.96-1.28-2.94z"/>
  <path d="m273 89.1 0.531-1.65 0.164-0.906-0.0413-0.395-0.0579-0.143-0.201-0.0955-0.703-0.168-0.794 0.12-0.259 0.0714-0.374 0.151-1.76 0.928-1.11 0.851-0.196 0.446 0.0413 0.778 0.107 0.492 0.183 0.398 0.174 0.231 0.27 0.222 0.274 0.0556 2.66 0.492z"/>
  <path d="m38.7 422 7.71 2.1h9.47l10.2-4.91h7.01l8.77 1.05 1.05 9.47 3.51 7.01v8.41l-4.56 7.71m40.3 11.9 7.36-1.75 3.86-9.12 2.45-8.06 2.8-6.66-2.8-12.3 1.75-8.41m22.1-320 13 2.1 7.71 8.77 4.91 10.9 8.77 7.36 2.45 5.61 9.82 1.4h24.2l3.51-4.56 4.56-3.86 3.16-5.96 1.4-7.71-5.26-5.61 1.75-6.31 2.45-2.45 1.4-1.05m-55.1 25.1 9.2-6.18 4.91-6.31h5.26l1.4 5.26-2.1 4.91-1.75 3.16 5.61 6.31 1.75 4.91m17.5 0.701 11.2 5.96 6.31-3.86 4.56 6.66 4.56 7.71 7.71 5.26 6.66-1.4 3.16-4.56 2.45-5.26 5.26 2.8 9.12-3.51 6.31-5.26 8.41-1.4 7.36 3.16 9.82 3.16 7.36 4.56 21.4-1.4 5.61-4.21 4.21-5.96 4.21-8.06 6.66-5.26 5.61-0.701 1.05 3.86h7.71l7.36 0.701 1.4 5.96-3.51 8.41 6.66-1.05 3.86-2.45 3.86-1.4m-54.7 53.3-2.8 8.41-1.75 8.41 5.96 2.8 6.66-3.16 3.86 2.8 7.01-0.351 1.75 3.16 3.16-5.26-3.86-3.16-1.4-8.41-4.56-3.51-3.16-4.56-4.21 3.86h-3.16zm70.5 75.7s-9.12 3.86-10.5 4.21c-1.4 0.351-9.47 2.1-9.47 2.1l-5.61-2.8-6.31 5.61-4.56 9.82h-18.6l-3.51-3.51-4.56-1.4-4.91 1.75-1.4-7.71-7.36-7.36-0.351-4.91 6.66-6.66-3.51-7.01-6.66-3.86-5.61-5.26-8.06-4.91-7.01 3.16-7.01-6.31-7.01-7.36 0.701-10.2 4.21-11.2-8.06-3.86-0.351-2.8 1.4-5.61 3.86-6.66-3.51-9.47-9.82-2.45-7.01-2.8-9.12-7.01-6.66-1.75-7.01-3.51m6.31 3.86-1.4 7.01-3.86 5.26-11.2 0.701-6.31-2.8-3.16 2.8-7.01 2.1 0.701 10.2 4.56 6.31 5.61 7.71-5.61 3.51 3.51 5.61 3.86 6.66 0.351 11.6-8.41 4.21 2.8 2.8s-4.56 1.05-6.31 1.05-10.9 2.8-10.9 2.8l2.45 7.36-1.05 8.06 4.56 5.96 2.45 7.01 6.66 1.05 5.96 10.2 5.26 5.96 14 2.1-0.351 9.47 3.51 5.61 6.66 4.56h9.12l8.77 5.96 7.01 3.51 8.06-5.96-3.16-8.06-2.8-5.96v-8.77l-1.4-10.9 6.66-5.61 12.6-3.16s9.47-2.45 11.2-2.1c1.75 0.351 9.12 0.701 9.12 0.701m-42.1 102c0-1.4-3.51-9.12-3.51-9.12l-4.91-3.51-0.351-8.41 1.75-4.21 6.31 1.4 5.26-2.8 6.31-7.71 4.91-10.5 6.66-5.26-2.8-7.71-6.31-2.1-3.86 0.351m-14 50.8-9.12-0.351-13.3 1.05-7.01-8.41-5.26 2.45 1.05 8.41-3.16 3.16-4.91-2.45-11.2-1.05-5.61 0.351 4.56 5.61-2.45 1.4-7.01 2.45-2.45-9.82-6.66-6.31-7.36-3.86h-9.82l-0.701-8.77h-4.21l-2.8-6.66 6.31-5.96 0.351-8.06-0.701-4.21 7.01-5.61 3.51-9.47-3.16-5.26-7.71-4.56-4.21-8.06 10.5-2.8 9.12-4.21 10.9-7.01 4.56-4.21m-103-119 5.26 8.41 10.2 6.31h9.12l-1.75-8.06-5.61-3.51-9.47 2.8zm-68.4 76.1 15.1-1.05 11.9-7.36 3.16-5.26-0.701-3.16 11.9 8.06 4.21 8.41s-2.8 7.01-1.4 7.01 2.1 5.61 2.1 5.61l9.47-0.351 10.2-4.56 4.21-4.56-3.16-10.2-4.56-3.51-1.75-5.96 7.71-2.1 9.47-2.45 4.21 4.91-1.75 3.16 7.36 1.05 4.21-4.21 3.51-5.96 3.86 7.01-2.1 8.06-4.91 5.26 2.45 5.61 4.21 7.01 3.16 9.47 7.01 5.96 7.01 1.75-1.4 5.61-2.8 4.21 3.16 4.21 1.05 2.45 9.12 1.75-2.1 5.96 2.8 5.26-3.51 7.71 6.66 3.86 1.05-5.61 5.61-1.75m-21.4-19.3-4.56 9.12-8.06 6.66h-4.56l-2.1-5.26-4.56 0.351s-1.75 4.21 0 4.21 3.51 3.51 3.51 3.51l-4.91 4.21-8.41-0.701-5.96 4.56 2.1 5.26 5.61-1.4v6.66l-5.96 5.61-6.31 6.66-4.91 7.71-8.06 9.12-1.75 5.61-4.91-3.16-2.45-7.71-6.66-4.91-6.66 4.91 0.701 5.96-4.21 1.05-12.6 7.71-3.86 0.701-3.51-2.45-2.1 4.56-5.61 3.86-5.96 1.4-1.4 7.71-9.47 4.91-7.01 1.75-6.31-3.16m81.3-23.5 2.45 5.96-1.75 8.77-4.56 0.351-1.4 5.26 3.16 3.86-2.45 12.3-3.86 0.351-0.701 6.31-6.66 4.91 3.86 4.91h8.06l9.12-3.51 6.31 3.86s1.4 4.91 0.701 6.31c-0.701 1.4-1.4 4.91-1.4 4.91l4.91 2.45-3.86 7.36 5.26 8.77 6.66 3.51 1.05-4.91 3.51-4.21 1.75 7.01 0.701 6.31 3.16 5.61 5.61-7.71 5.96-3.16-0.701-17.9-2.45-4.21v-11.2l-3.16-8.06 6.31-3.16 16.8 0.351 2.45-5.96 8.06-3.16 2.8-8.06-0.351-3.86 7.01-1.75 4.91-5.26m-42.4 69.8 10.9-5.26 4.91-3.86-5.26-4.56 12.6-1.4 7.71 6.66 3.86 7.01 13 9.82v23.5l15.1 14.7 0.701 12.6-7.36 12.6s-4.56 11.2-6.31 12.3c-1.75 1.05-7.71 10.5-7.71 10.5l8.06 13.3-1.05 14.4-1.75 15.4-9.82 4.21-8.41 2.45-6.31 9.82" fill-rule="evenodd"/>
 </g>
</svg>
